<?xml version="1.0" encoding="utf-8"?>
<!-- Generator: Adobe Illustrator 17.1.0, SVG Export Plug-In . SVG Version: 6.00 Build 0)  -->
<!DOCTYPE svg PUBLIC "-//W3C//DTD SVG 1.1//EN" "http://www.w3.org/Graphics/SVG/1.1/DTD/svg11.dtd">
<svg version="1.1" id="Layer_1" xmlns="http://www.w3.org/2000/svg" xmlns:xlink="http://www.w3.org/1999/xlink" x="0px" y="0px"
	 viewBox="8.7 7.4 68.9 70.2" enable-background="new 8.7 7.4 68.9 70.2" xml:space="preserve">
<path fill="#FFFFFF" d="M22.2,20.2c5.4-4.9,12.5-7.8,19.8-7.9c7.8-0.2,15.6,2.8,21.3,8.1c5,4.6,8.3,11,9.3,17.8
	c1.3,8.6-1.4,17.6-7.1,24.1c-3.9,4.5-9.1,7.8-14.8,9.4c-4.9,1.4-10.2,1.5-15.2,0.3c-0.3,0-0.2-0.4-0.2-0.6c0.1-0.1,0.2-0.2,0.3-0.2
	c5.9-0.1,11.8-2.5,16.1-6.6c4.5-4.2,7.3-10.1,7.6-16.2c0.2-0.6,0-1.4-0.7-1.4c-3.5,0-7-0.1-10.5-0.1c-0.5,0-0.9,0.3-0.9,0.8
	c-0.2,3.8-2.4,7.4-5.6,9.4c-3,1.9-6.8,2.4-10.1,1.3c-4.8-1.4-8.4-6.2-8.4-11.2c-0.1-3.7,1.5-7.4,4.4-9.7c2.7-2.2,6.3-3.2,9.8-2.6
	c0.9,0.2,1.9,0.5,2.8,0.5c0.5,0,1-0.3,1.5-0.3c-2.1,3.9-4.3,7.8-6.4,11.7c0.1,0,0.2,0,0.3,0c6.6-3.9,13.3-7.8,19.9-11.7
	c0.4-0.2,0.6-0.7,0.4-1c-1-1.7-2.3-3.2-3.7-4.6c-4.3-4.2-10.2-6.7-16.2-6.9c-5.4-0.2-10.8,1.5-15.1,4.8c-2.6,1.9-4.9,4.4-6.5,7.3
	c-0.1,0.3-0.6,0.4-0.8,0.1c-0.1-0.5,0.2-0.9,0.3-1.3C15.4,28.3,18.3,23.7,22.2,20.2"/>
</svg>
