<?xml version="1.0" encoding="utf-8"?>
<!-- Generator: Adobe Illustrator 17.1.0, SVG Export Plug-In . SVG Version: 6.00 Build 0)  -->
<!DOCTYPE svg PUBLIC "-//W3C//DTD SVG 1.1//EN" "http://www.w3.org/Graphics/SVG/1.1/DTD/svg11.dtd">
<svg version="1.1" id="Layer_1" xmlns="http://www.w3.org/2000/svg" xmlns:xlink="http://www.w3.org/1999/xlink" x="0px" y="0px"
	 viewBox="0 0 85 85" enable-background="new 0 0 85 85" xml:space="preserve">
<path fill="#FFFFFF" d="M32.4,31c2.8-2.5,6.5-4,10.2-4.1c4-0.1,8,1.4,11,4.2c2.6,2.4,4.3,5.7,4.8,9.2c0.7,4.4-0.7,9.1-3.6,12.4
	c-2,2.3-4.7,4-7.6,4.8c-2.5,0.7-5.3,0.8-7.8,0.1c-0.2,0-0.1-0.2-0.1-0.3c0.1,0,0.1-0.1,0.2-0.1c3.1,0,6.1-1.3,8.3-3.4
	c2.3-2.1,3.7-5.2,3.9-8.3c0.1-0.3,0-0.7-0.4-0.7c-1.8,0-3.6-0.1-5.4,0c-0.2,0-0.5,0.2-0.5,0.4c-0.1,2-1.2,3.8-2.9,4.9
	c-1.5,1-3.5,1.2-5.2,0.7c-2.5-0.7-4.3-3.2-4.3-5.8c-0.1-1.9,0.8-3.8,2.3-5c1.4-1.2,3.3-1.7,5-1.3c0.5,0.1,1,0.3,1.5,0.3
	c0.3,0,0.5-0.1,0.8-0.2c-1.1,2-2.2,4-3.3,6c0.1,0,0.1,0,0.2,0c3.4-2,6.8-4,10.3-6c0.2-0.1,0.3-0.3,0.2-0.5c-0.5-0.9-1.2-1.7-1.9-2.4
	c-2.2-2.2-5.3-3.4-8.3-3.5c-2.8-0.1-5.6,0.8-7.8,2.5c-1.4,1-2.5,2.3-3.4,3.7c-0.1,0.2-0.3,0.2-0.4,0c0-0.2,0.1-0.5,0.1-0.7
	C28.8,35.2,30.4,32.8,32.4,31"/>
</svg>
