<?xml version="1.0" encoding="utf-8"?>
<!-- Generator: Adobe Illustrator 17.1.0, SVG Export Plug-In . SVG Version: 6.00 Build 0)  -->
<!DOCTYPE svg PUBLIC "-//W3C//DTD SVG 1.1//EN" "http://www.w3.org/Graphics/SVG/1.1/DTD/svg11.dtd">
<svg version="1.1" id="Layer_1" xmlns="http://www.w3.org/2000/svg" xmlns:xlink="http://www.w3.org/1999/xlink" x="0px" y="0px"
	 viewBox="0 0 85 85" enable-background="new 0 0 85 85" xml:space="preserve">
<path fill="#FFFFFF" d="M13.7,11.1C21.2,4.2,31.3,0.1,41.6,0c11-0.3,21.9,3.9,29.9,11.4c7,6.5,11.7,15.5,13.1,25
	c1.8,12-1.9,24.8-9.9,34c-5.4,6.3-12.8,11-20.8,13.2c-6.9,1.9-14.4,2.1-21.4,0.4c-0.5-0.1-0.3-0.6-0.3-0.9c0.2-0.1,0.3-0.3,0.5-0.3
	c8.4-0.1,16.6-3.5,22.7-9.2c6.3-5.8,10.2-14.2,10.7-22.8c0.3-0.8,0-2-1-2c-4.9,0-9.9-0.1-14.8-0.1c-0.6,0-1.2,0.5-1.3,1.1
	c-0.3,5.3-3.3,10.4-7.8,13.3c-4.2,2.7-9.5,3.4-14.3,1.8c-6.8-2-11.8-8.7-11.9-15.7c-0.2-5.2,2.1-10.4,6.2-13.6
	c3.8-3.1,8.9-4.5,13.8-3.7c1.3,0.2,2.6,0.7,4,0.8c0.7,0,1.4-0.4,2.1-0.5c-2.9,5.5-6,11-9,16.5c0.1,0.1,0.3,0.1,0.4,0
	c9.3-5.5,18.7-11,28-16.5c0.5-0.3,0.9-0.9,0.5-1.5c-1.5-2.4-3.2-4.6-5.2-6.5c-6-5.9-14.4-9.4-22.8-9.7c-7.6-0.2-15.2,2.2-21.3,6.7
	C8,23.9,4.8,27.4,2.5,31.4c-0.2,0.5-0.9,0.5-1.1,0.1c-0.1-0.7,0.2-1.3,0.4-1.9C4,22.5,8.2,16.1,13.7,11.1"/>
</svg>
